<svg width="114" height="56" viewBox="0 0 114 56" fill="none" xmlns="http://www.w3.org/2000/svg">
<path d="M21.2969 18.9784C24.5537 15.1236 29.748 11.8016 36.109 9.50265C24.627 13.1912 15.3582 19.0458 10.1343 25.9118C8.36626 28.2339 7.04622 30.8609 8.41773 33.2672C9.15352 34.5602 10.3792 36.0351 12.1386 36.9579C19.0867 40.6043 30.0606 40.567 39.2266 39.2087C48.2829 37.8661 56.6635 35.0934 63.1731 31.284C56.8255 33.7788 42.7216 36.3475 38.1972 36.4306C31.1539 36.5596 22.6884 35.3028 21.743 30.5781C21.2502 28.1141 23.2403 25.7148 25.5315 23.6026C37.2766 12.7794 57.4574 5.92315 77.3038 -4.19617e-05C56.1288 3.39921 36.5941 10.018 21.2969 18.9784Z" fill="url(#paint0_linear_9_514)"/>
<path d="M77.6401 8.49788C69.3634 9.63546 61.1973 11.644 54.2597 14.338C44.4542 18.1457 32.7616 22.8903 30.6495 29.6883C30.4789 30.236 30.7363 31.1524 31.2214 31.6418C32.2993 32.726 34.8946 33.073 36.7122 32.9483C38.5288 32.8226 40.1443 32.2813 41.6931 31.753C39.9165 32.3428 37.7711 32.6029 35.6962 32.4794C35.0633 32.4421 34.4114 32.3628 33.9177 32.1459C32.8617 31.6823 32.9331 30.7989 33.3153 30.093C34.4829 27.935 37.4032 25.2054 40.4054 23.6491C47.1505 20.15 54.2234 17.2769 62.3791 14.8064C70.5329 12.3359 80.0286 11.344 89.3489 11.7223C93.6359 11.8966 98.1879 12.5841 100.836 14.4162C103.623 16.3444 103.615 19.0313 103.105 21.4646C100.797 32.5069 82.1673 48.0596 61.283 52.6552C66.6528 51.4842 72.0302 50.2597 76.8261 48.5059C81.9853 46.6209 86.3495 44.1666 90.3944 41.6059C95.7966 38.1851 100.743 34.5041 104.133 30.3952C107.524 26.2863 109.302 21.7123 108.212 17.2521C109.863 18.7318 111.155 20.3292 112.044 21.9891C114.153 17.5133 109.578 12.6025 102.369 10.1276C97.7771 8.55077 92.3616 7.86001 86.8956 7.86001C83.779 7.86001 80.6452 8.08505 77.6401 8.49788ZM61.0505 52.7065C61.1286 52.6892 61.2058 52.6725 61.283 52.6552C61.2058 52.6725 61.1277 52.6892 61.0505 52.7065Z" fill="url(#paint1_linear_9_514)"/>
<path d="M71.7618 23.893C66.0165 23.9674 60.6153 25.3684 56.6961 27.2982C59.3448 25.9938 68.16 25.527 71.6836 26.0003C76.4558 26.6419 77.2039 29.2603 75.4159 31.1847C67.6758 39.5153 47.0737 44.6792 27.4723 44.9075C21.6374 44.9755 15.6291 44.5826 10.5624 43.254C5.49481 41.9254 1.50991 39.5444 1.122 36.8715C-0.656481 39.7241 2.74322 42.8633 7.94237 44.6274C13.1396 46.392 19.7836 47.331 26.2275 47.5604C36.9918 47.9441 48.0315 47.0224 57.8904 45.0024C67.7502 42.9825 76.3309 39.478 80.882 34.9833C81.1669 36.3939 81.0354 37.8224 80.4931 39.2174C84.5942 36.9201 86.9389 33.9742 87.0266 31.0039C87.0599 29.8674 86.7626 28.7115 85.7694 27.6705C83.5201 25.3144 77.7996 23.8903 72.1906 23.8903C72.0477 23.8903 71.9047 23.8914 71.7618 23.893Z" fill="url(#paint2_linear_9_514)"/>
<path d="M48.1057 50.4103C32.7637 52.2214 14.1325 51.7022 0 47.2615C6.6774 51.3428 15.8147 52.5036 25.1656 52.8722C34.5164 53.2392 44.177 52.9472 53.2553 51.5668C47.0763 53.4744 40.5552 54.9633 33.8464 56C51.6588 55.3708 68.7459 49.514 78.9813 40.5293C70.8313 45.7709 59.6906 49.0439 48.1057 50.4103Z" fill="url(#paint3_linear_9_514)"/>
<path d="M69.1701 16.448C62.8453 17.3887 57.039 19.0637 52.6605 21.3033C50.1148 22.6049 47.0811 24.9394 47.0401 27.7386C50.9335 24.9848 59.1473 22.4387 66.0954 21.2628C71.4737 20.3524 77.5259 20.0756 83.011 20.851C88.4932 21.6265 93.2796 23.5471 94.8151 26.0106C96.1799 23.8375 95.0076 21.381 91.7737 19.6417C88.5389 17.9013 83.3322 16.9235 78.2674 17.1059C83.3932 16.2424 88.9812 15.9273 94.4291 16.1949C90.5585 15.7406 86.5479 15.5037 82.5439 15.5037C78.0043 15.5037 73.4743 15.8086 69.1701 16.448Z" fill="url(#paint4_linear_9_514)"/>
<path d="M2.58088 29.6278C1.85367 32.468 1.99281 35.6563 6.05872 37.6837C2.883 32.1307 3.70457 26.0759 9.68621 21.1877C6.33512 23.9259 3.45582 26.207 2.58088 29.6278Z" fill="url(#paint5_linear_9_514)"/>
<path d="M91.5984 0.98161C82.99 1.44679 74.5761 2.9346 67.0104 5.30474C62.69 6.65872 58.6479 8.29872 55.0147 10.1924C64.5466 6.49953 76.0448 4.45749 87.5935 4.40461C90.8464 4.39004 94.1375 4.53251 97.2331 5.09914C101.563 5.89188 105.289 7.46604 108.927 9.01483C106.447 6.11853 101.524 3.9308 95.9645 3.25624C102.13 3.22062 108.306 3.89842 114 5.23621C112.359 4.8509 110.757 3.78671 109.158 3.25948C107.379 2.67234 105.496 2.18666 103.547 1.80728C100.506 1.21475 97.4161 0.909304 94.2614 0.909304C93.3788 0.909304 92.4914 0.933042 91.5984 0.98161Z" fill="url(#paint6_linear_9_514)"/>
<path d="M29.9843 27.0781C28.9998 28.2772 28.2125 29.6414 28.9045 30.9042C29.5993 32.1751 31.7295 33.0811 34.0159 33.3871C36.3034 33.6936 38.4145 33.5668 40.6533 33.1626C44.6001 32.4492 47.6433 31.0623 50.5741 28.8994C42.5757 31.4649 38.526 31.4503 36.8276 31.2064C34.1846 30.827 32.1784 29.1935 32.5224 27.662C32.9075 25.9437 35.3064 22.6475 40.2645 19.6849C35.8907 21.6562 32.3413 24.2087 29.9843 27.0781Z" fill="url(#paint7_linear_9_514)"/>
<defs>
<linearGradient id="paint0_linear_9_514" x1="19.174" y1="13.0757" x2="57.1253" y2="39.8548" gradientUnits="userSpaceOnUse">
<stop stop-color="#8FFFFF"/>
<stop offset="1" stop-color="#7F2B8A"/>
</linearGradient>
<linearGradient id="paint1_linear_9_514" x1="30.597" y1="30.2834" x2="112.561" y2="30.2834" gradientUnits="userSpaceOnUse">
<stop stop-color="#E9A86B"/>
<stop offset="0.408439" stop-color="#DD5289"/>
<stop offset="0.462745" stop-color="#DD5289"/>
<stop offset="1" stop-color="#553398"/>
</linearGradient>
<linearGradient id="paint2_linear_9_514" x1="96.6278" y1="21.8443" x2="11.0213" y2="99.3404" gradientUnits="userSpaceOnUse">
<stop stop-color="#E9A86B"/>
<stop offset="0.408439" stop-color="#DD5289"/>
<stop offset="0.462745" stop-color="#DD5289"/>
<stop offset="1" stop-color="#553398"/>
</linearGradient>
<linearGradient id="paint3_linear_9_514" x1="0.152248" y1="49.4986" x2="79.2257" y2="44.0896" gradientUnits="userSpaceOnUse">
<stop stop-color="#8FFFFF"/>
<stop offset="1" stop-color="#7F2B8A"/>
</linearGradient>
<linearGradient id="paint4_linear_9_514" x1="47.0399" y1="21.6211" x2="95.3757" y2="21.6211" gradientUnits="userSpaceOnUse">
<stop stop-color="#8FFFFF"/>
<stop offset="1" stop-color="#7F2B8A"/>
</linearGradient>
<linearGradient id="paint5_linear_9_514" x1="2.24099" y1="29.4357" x2="9.68582" y2="29.4357" gradientUnits="userSpaceOnUse">
<stop stop-color="#E9A86B"/>
<stop offset="0.408439" stop-color="#DD5289"/>
<stop offset="0.462745" stop-color="#DD5289"/>
<stop offset="1" stop-color="#553398"/>
</linearGradient>
<linearGradient id="paint6_linear_9_514" x1="54.5679" y1="7.14979" x2="113.02" y2="-1.43754" gradientUnits="userSpaceOnUse">
<stop stop-color="#8FFFFF"/>
<stop offset="1" stop-color="#7F2B8A"/>
</linearGradient>
<linearGradient id="paint7_linear_9_514" x1="28.642" y1="26.6211" x2="50.5738" y2="26.6211" gradientUnits="userSpaceOnUse">
<stop stop-color="#8FFFFF"/>
<stop offset="1" stop-color="#7F2B8A"/>
</linearGradient>
</defs>
</svg>
